<svg width="16" height="16" viewBox="0 0 16 16" fill="none" xmlns="http://www.w3.org/2000/svg">
<path d="M6.09999 9.89996L12 2.66663M3.99999 2.66663L9.89999 9.89996M2.66666 11.3333C2.66666 11.5959 2.71839 11.856 2.8189 12.0987C2.91941 12.3413 3.06673 12.5618 3.25244 12.7475C3.43816 12.9332 3.65864 13.0805 3.90129 13.1811C4.14394 13.2816 4.40401 13.3333 4.66666 13.3333C4.9293 13.3333 5.18937 13.2816 5.43202 13.1811C5.67467 13.0805 5.89515 12.9332 6.08087 12.7475C6.26659 12.5618 6.41391 12.3413 6.51442 12.0987C6.61493 11.856 6.66666 11.5959 6.66666 11.3333C6.66666 11.0706 6.61493 10.8106 6.51442 10.5679C6.41391 10.3253 6.26659 10.1048 6.08087 9.91908C5.89515 9.73336 5.67467 9.58604 5.43202 9.48553C5.18937 9.38502 4.9293 9.33329 4.66666 9.33329C4.40401 9.33329 4.14394 9.38502 3.90129 9.48553C3.65864 9.58604 3.43816 9.73336 3.25244 9.91908C3.06673 10.1048 2.91941 10.3253 2.8189 10.5679C2.71839 10.8106 2.66666 11.0706 2.66666 11.3333ZM9.33332 11.3333C9.33332 11.8637 9.54404 12.3724 9.91911 12.7475C10.2942 13.1226 10.8029 13.3333 11.3333 13.3333C11.8638 13.3333 12.3725 13.1226 12.7475 12.7475C13.1226 12.3724 13.3333 11.8637 13.3333 11.3333C13.3333 10.8029 13.1226 10.2942 12.7475 9.91908C12.3725 9.54401 11.8638 9.33329 11.3333 9.33329C10.8029 9.33329 10.2942 9.54401 9.91911 9.91908C9.54404 10.2942 9.33332 10.8029 9.33332 11.3333Z" stroke="black" stroke-linecap="round" stroke-linejoin="round"/>
</svg>
