<svg width="25" height="24" viewBox="0 0 25 24" fill="none" xmlns="http://www.w3.org/2000/svg">
<path d="M6.462 2.51303C6.49318 2.60653 6.50562 2.70525 6.49862 2.80357C6.49162 2.90188 6.46531 2.99784 6.4212 3.08598C6.37708 3.17412 6.31603 3.25269 6.24152 3.31722C6.16702 3.38174 6.08053 3.43095 5.987 3.46203L5.171 3.73403C5.12124 3.7506 5.07795 3.78241 5.04726 3.82494C5.01657 3.86747 5.00004 3.91858 5 3.97103V21.25C5 21.388 5.112 21.5 5.25 21.5H19.75C19.8163 21.5 19.8799 21.4737 19.9268 21.4268C19.9737 21.3799 20 21.3163 20 21.25V3.97003C19.9998 3.91787 19.9833 3.86708 19.9529 3.82476C19.9224 3.78244 19.8794 3.75072 19.83 3.73403L19.013 3.46203C18.8242 3.39917 18.668 3.26388 18.579 3.0859C18.4899 2.90793 18.4751 2.70186 18.538 2.51303C18.6009 2.32419 18.7362 2.16806 18.9141 2.07898C19.0921 1.9899 19.2982 1.97517 19.487 2.03803L20.303 2.31103C20.6513 2.42704 20.9543 2.64967 21.1692 2.9474C21.384 3.24514 21.4997 3.60289 21.5 3.97003V21.25C21.5 21.7142 21.3156 22.1593 20.9874 22.4875C20.6592 22.8157 20.2141 23 19.75 23H5.25C4.78587 23 4.34075 22.8157 4.01256 22.4875C3.68437 22.1593 3.5 21.7142 3.5 21.25V3.97003C3.50007 3.60272 3.61571 3.24474 3.83055 2.94681C4.04538 2.64888 4.34851 2.4261 4.697 2.31003L5.513 2.03803C5.6065 2.00685 5.70523 1.99441 5.80354 2.00141C5.90185 2.00841 5.99782 2.03472 6.08595 2.07883C6.17409 2.12295 6.25267 2.184 6.31719 2.2585C6.38172 2.33301 6.43092 2.4195 6.462 2.51303Z" fill="black"/>
<path d="M7.5 1.75C7.5 0.784 8.284 0 9.25 0H15.75C16.716 0 17.5 0.784 17.5 1.75V3.25C17.5 3.71413 17.3156 4.15925 16.9874 4.48744C16.6592 4.81563 16.2141 5 15.75 5H9.25C8.78587 5 8.34075 4.81563 8.01256 4.48744C7.68437 4.15925 7.5 3.71413 7.5 3.25V1.75ZM9.25 1.5C9.1837 1.5 9.12011 1.52634 9.07322 1.57322C9.02634 1.62011 9 1.6837 9 1.75V3.25C9 3.388 9.112 3.5 9.25 3.5H15.75C15.8163 3.5 15.8799 3.47366 15.9268 3.42678C15.9737 3.37989 16 3.3163 16 3.25V1.75C16 1.6837 15.9737 1.62011 15.9268 1.57322C15.8799 1.52634 15.8163 1.5 15.75 1.5H9.25Z" fill="black"/>
</svg>
