<svg width="17" height="16" viewBox="0 0 17 16" fill="none" xmlns="http://www.w3.org/2000/svg">
<path d="M14.5226 4.5856L11.7295 1.7931C11.6366 1.70021 11.5264 1.62653 11.4051 1.57626C11.2837 1.526 11.1537 1.50012 11.0223 1.50012C10.891 1.50012 10.7609 1.526 10.6396 1.57626C10.5182 1.62653 10.408 1.70021 10.3151 1.7931L2.60825 9.49997C2.51499 9.59249 2.44105 9.70263 2.39073 9.82398C2.34041 9.94533 2.31471 10.0755 2.31513 10.2068V13C2.31513 13.2652 2.42049 13.5195 2.60802 13.7071C2.79556 13.8946 3.04991 14 3.31513 14H6.10825C6.23962 14.0004 6.36977 13.9747 6.49112 13.9244C6.61247 13.8741 6.72261 13.8001 6.81513 13.7068L12.0445 8.4781L12.262 9.34685L9.96201 11.6462C9.86819 11.74 9.81544 11.8671 9.81539 11.9998C9.81533 12.1324 9.86795 12.2596 9.96169 12.3534C10.0554 12.4472 10.1826 12.5 10.3152 12.5C10.4478 12.5001 10.5751 12.4475 10.6689 12.3537L13.1689 9.85372C13.23 9.79269 13.2743 9.71685 13.2974 9.6336C13.3205 9.55036 13.3217 9.46254 13.3008 9.37872L12.8695 7.6531L14.5226 5.99997C14.6155 5.90711 14.6892 5.79686 14.7395 5.67552C14.7897 5.55418 14.8156 5.42412 14.8156 5.29278C14.8156 5.16144 14.7897 5.03139 14.7395 4.91005C14.6892 4.78871 14.6155 4.67846 14.5226 4.5856ZM12.3151 6.7931L9.52263 3.99997L11.0226 2.49997L13.8151 5.2931L12.3151 6.7931Z" fill="black"/>
</svg>
