<svg width="17" height="16" viewBox="0 0 17 16" fill="none" xmlns="http://www.w3.org/2000/svg">
<path d="M12.3151 10.6667H4.31511C3.57873 10.6667 2.98178 11.2637 2.98178 12.0001C2.98178 12.7365 3.57873 13.3334 4.31511 13.3334H12.3151C13.0515 13.3334 13.6484 12.7365 13.6484 12.0001C13.6484 11.2637 13.0515 10.6667 12.3151 10.6667Z" stroke="black"/>
<path d="M3.58845 7.57604L5.64845 10.6667H10.9818L13.0418 7.57604C13.3324 7.14071 13.4778 6.92271 13.4538 6.68604C13.4305 6.44871 13.2458 6.26404 12.8758 5.89404L8.31512 1.33337L3.75512 5.89337C3.38445 6.26404 3.19978 6.44871 3.17645 6.68604C3.15312 6.92337 3.29845 7.14071 3.58845 7.57604Z" stroke="black"/>
<path d="M8.3151 9.00008C9.23558 9.00008 9.98177 8.25389 9.98177 7.33341C9.98177 6.41294 9.23558 5.66675 8.3151 5.66675C7.39463 5.66675 6.64844 6.41294 6.64844 7.33341C6.64844 8.25389 7.39463 9.00008 8.3151 9.00008Z" stroke="black"/>
<path d="M8.31512 1.33337V6.00004" stroke="black"/>
</svg>
