<svg width="13" height="11" viewBox="0 0 13 11" fill="none" xmlns="http://www.w3.org/2000/svg">
<mask id="path-1-inside-1_8_5966" fill="white">
<path fill-rule="evenodd" clip-rule="evenodd" d="M6.41026 8.4526C9.59937 8.4526 12.1847 6.66254 12.1847 4.45439C12.1847 2.24624 9.59937 0.456177 6.41026 0.456177C3.22115 0.456177 0.635864 2.24624 0.635864 4.45439C0.635864 5.36323 1.07381 6.20124 1.81155 6.87277L1.81155 10.1288L4.94096 8.32202C5.41009 8.40723 5.90252 8.4526 6.41026 8.4526Z"/>
</mask>
<path fill-rule="evenodd" clip-rule="evenodd" d="M6.41026 8.4526C9.59937 8.4526 12.1847 6.66254 12.1847 4.45439C12.1847 2.24624 9.59937 0.456177 6.41026 0.456177C3.22115 0.456177 0.635864 2.24624 0.635864 4.45439C0.635864 5.36323 1.07381 6.20124 1.81155 6.87277L1.81155 10.1288L4.94096 8.32202C5.41009 8.40723 5.90252 8.4526 6.41026 8.4526Z" fill="#EDF6F9"/>
<path d="M1.81155 6.87277L2.81155 6.87277L2.81155 6.43078L2.48469 6.13325L1.81155 6.87277ZM1.81155 10.1288L0.81155 10.1288L0.81155 11.8608L2.31155 10.9948L1.81155 10.1288ZM4.94096 8.32202L5.11967 7.33812L4.75869 7.27255L4.44096 7.45599L4.94096 8.32202ZM11.1847 4.45439C11.1847 5.13762 10.7857 5.8628 9.92411 6.4594C9.06637 7.0533 7.82712 7.4526 6.41026 7.4526V9.4526C8.18251 9.4526 9.83045 8.95688 11.0626 8.10371C12.2909 7.25325 13.1847 5.97931 13.1847 4.45439H11.1847ZM6.41026 1.45618C7.82712 1.45618 9.06637 1.85548 9.92411 2.44938C10.7857 3.04599 11.1847 3.77116 11.1847 4.45439H13.1847C13.1847 2.92947 12.2909 1.65554 11.0626 0.805071C9.83045 -0.0480989 8.18251 -0.543823 6.41026 -0.543823V1.45618ZM1.63586 4.45439C1.63586 3.77116 2.03477 3.04599 2.89641 2.44938C3.75414 1.85548 4.9934 1.45618 6.41026 1.45618V-0.543823C4.63801 -0.543823 2.99007 -0.0480989 1.75788 0.805071C0.529604 1.65554 -0.364136 2.92947 -0.364136 4.45439H1.63586ZM2.48469 6.13325C1.90549 5.60604 1.63586 5.02092 1.63586 4.45439H-0.364136C-0.364136 5.70554 0.242127 6.79644 1.13841 7.61228L2.48469 6.13325ZM2.81155 10.1288L2.81155 6.87277L0.81155 6.87277L0.81155 10.1288L2.81155 10.1288ZM4.44096 7.45599L1.31155 9.26276L2.31155 10.9948L5.44096 9.18804L4.44096 7.45599ZM6.41026 7.4526C5.96194 7.4526 5.52933 7.41253 5.11967 7.33812L4.76224 9.30592C5.29085 9.40193 5.8431 9.4526 6.41026 9.4526V7.4526Z" fill="#008AB7" mask="url(#path-1-inside-1_8_5966)"/>
</svg>
