<svg width="12" height="12" viewBox="0 0 12 12" fill="none" xmlns="http://www.w3.org/2000/svg">
<path d="M8.18993 2.72627L8.3002 2.92477L8.52224 2.97235L8.58291 2.98535C9.17634 3.12503 9.70765 3.45545 10.0954 3.92603C10.483 4.39653 10.7057 4.98112 10.7293 5.59019L10.7312 5.70195C10.7307 6.06647 10.6587 6.42738 10.5193 6.7642C10.3793 7.10226 10.1741 7.40944 9.91536 7.66819C9.65665 7.92694 9.3495 8.13219 9.01147 8.27223C8.67764 8.41052 8.32014 8.48253 7.9589 8.48431L7.95559 8.48412L7.67728 8.46821L7.51743 8.69658L7.50488 8.71451C7.308 8.97246 7.05715 9.18435 6.76984 9.33534C6.48159 9.48682 6.16368 9.5733 5.83847 9.58873L5.72624 9.59108C5.52416 9.59065 5.32949 9.56411 5.14094 9.51197L5.12106 9.50605L4.90992 9.44315L4.72102 9.55652L2.93923 10.6259L2.93878 10.6262C2.93607 10.6278 2.933 10.6287 2.92984 10.6289C2.92669 10.629 2.92355 10.6283 2.92072 10.6269C2.91788 10.6255 2.91544 10.6235 2.91363 10.6209C2.91276 10.6197 2.91205 10.6183 2.91151 10.617L2.91045 10.5968V9.34703V9.03687L2.63257 8.89908L2.57674 8.8714C2.36582 8.75781 2.18743 8.59213 2.05858 8.39009C1.92949 8.18768 1.85447 7.95559 1.84064 7.71599L1.83796 7.62823C1.83839 7.53857 1.84701 7.45139 1.86359 7.36626L1.86891 7.34252L1.93737 7.03707L1.69251 6.84205L1.63766 6.79837C1.36866 6.57508 1.14926 6.29805 0.993556 5.985C0.838025 5.67231 0.749484 5.33061 0.733573 4.98178L0.731206 4.86339C0.732467 4.19957 0.996712 3.56321 1.4662 3.09373C1.93584 2.62409 2.57246 2.35982 3.23652 2.35873L3.26211 2.35917L3.48661 2.36305L3.63865 2.19783L3.71388 2.11607C4.21012 1.59386 4.88974 1.28474 5.60942 1.25386L5.73585 1.25147C6.22424 1.25203 6.70392 1.38105 7.12673 1.62561C7.54981 1.87032 7.90101 2.22207 8.14505 2.6455L8.18993 2.72627Z" stroke="#008AB7"/>
</svg>
