<svg width="14" height="14" viewBox="0 0 14 14" fill="none" xmlns="http://www.w3.org/2000/svg">
<path d="M7.5 6H2C1.86739 6 1.74021 6.05268 1.64645 6.14645C1.55268 6.24021 1.5 6.36739 1.5 6.5V12C1.5 12.1326 1.55268 12.2598 1.64645 12.3536C1.74021 12.4473 1.86739 12.5 2 12.5H7.5C7.63261 12.5 7.75979 12.4473 7.85355 12.3536C7.94732 12.2598 8 12.1326 8 12V6.5C8 6.36739 7.94732 6.24021 7.85355 6.14645C7.75979 6.05268 7.63261 6 7.5 6ZM7 11.5H2.5V7H7V11.5ZM12.5 10.5V11.5C12.5 11.7652 12.3946 12.0196 12.2071 12.2071C12.0196 12.3946 11.7652 12.5 11.5 12.5H10C9.86739 12.5 9.74021 12.4473 9.64645 12.3536C9.55268 12.2598 9.5 12.1326 9.5 12C9.5 11.8674 9.55268 11.7402 9.64645 11.6464C9.74021 11.5527 9.86739 11.5 10 11.5H11.5V10.5C11.5 10.3674 11.5527 10.2402 11.6464 10.1464C11.7402 10.0527 11.8674 10 12 10C12.1326 10 12.2598 10.0527 12.3536 10.1464C12.4473 10.2402 12.5 10.3674 12.5 10.5ZM12.5 6V8C12.5 8.13261 12.4473 8.25979 12.3536 8.35355C12.2598 8.44732 12.1326 8.5 12 8.5C11.8674 8.5 11.7402 8.44732 11.6464 8.35355C11.5527 8.25979 11.5 8.13261 11.5 8V6C11.5 5.86739 11.5527 5.74021 11.6464 5.64645C11.7402 5.55268 11.8674 5.5 12 5.5C12.1326 5.5 12.2598 5.55268 12.3536 5.64645C12.4473 5.74021 12.5 5.86739 12.5 6ZM12.5 2.5V3.5C12.5 3.63261 12.4473 3.75979 12.3536 3.85355C12.2598 3.94732 12.1326 4 12 4C11.8674 4 11.7402 3.94732 11.6464 3.85355C11.5527 3.75979 11.5 3.63261 11.5 3.5V2.5H10.5C10.3674 2.5 10.2402 2.44732 10.1464 2.35355C10.0527 2.25979 10 2.13261 10 2C10 1.86739 10.0527 1.74021 10.1464 1.64645C10.2402 1.55268 10.3674 1.5 10.5 1.5H11.5C11.7652 1.5 12.0196 1.60536 12.2071 1.79289C12.3946 1.98043 12.5 2.23478 12.5 2.5ZM8.5 2C8.5 2.13261 8.44732 2.25979 8.35355 2.35355C8.25979 2.44732 8.13261 2.5 8 2.5H6C5.86739 2.5 5.74021 2.44732 5.64645 2.35355C5.55268 2.25979 5.5 2.13261 5.5 2C5.5 1.86739 5.55268 1.74021 5.64645 1.64645C5.74021 1.55268 5.86739 1.5 6 1.5H8C8.13261 1.5 8.25979 1.55268 8.35355 1.64645C8.44732 1.74021 8.5 1.86739 8.5 2ZM1.5 4V2.5C1.5 2.23478 1.60536 1.98043 1.79289 1.79289C1.98043 1.60536 2.23478 1.5 2.5 1.5H3.5C3.63261 1.5 3.75979 1.55268 3.85355 1.64645C3.94732 1.74021 4 1.86739 4 2C4 2.13261 3.94732 2.25979 3.85355 2.35355C3.75979 2.44732 3.63261 2.5 3.5 2.5H2.5V4C2.5 4.13261 2.44732 4.25979 2.35355 4.35355C2.25979 4.44732 2.13261 4.5 2 4.5C1.86739 4.5 1.74021 4.44732 1.64645 4.35355C1.55268 4.25979 1.5 4.13261 1.5 4Z" fill="black"/>
</svg>
