<svg width="16" height="16" viewBox="0 0 16 16" fill="none" xmlns="http://www.w3.org/2000/svg">
<path d="M8.955 13.41L9.13 14.41C9.87641 14.2798 10.594 14.0192 11.25 13.64L10.75 12.775C10.1936 13.0903 9.58596 13.3053 8.955 13.41ZM12.21 11.535L13 12.175C13.4843 11.5935 13.8633 10.9319 14.12 10.22L13.185 9.87996C12.9596 10.4845 12.6296 11.0448 12.21 11.535ZM4.75 13.625C5.40596 14.0042 6.12359 14.2648 6.87 14.395L7.045 13.395C6.41308 13.2856 5.80543 13.0655 5.25 12.745L4.75 13.625ZM2.835 9.87996L1.9 10.22C2.1506 10.9305 2.52281 11.592 3 12.175L3.16 12.045L3.77 11.545C3.35754 11.0532 3.03433 10.4931 2.815 9.88996L2.835 9.87996ZM14.5 7.99996C14.4981 7.24221 14.3627 6.49072 14.1 5.77996L13.165 6.11996C13.3835 6.72282 13.4968 7.35874 13.5 7.99996H14.5ZM13 3.82496C12.39 3.09065 11.6258 2.4997 10.7617 2.09412C9.8975 1.68853 8.95461 1.47827 8 1.47827C7.0454 1.47827 6.10251 1.68853 5.23835 2.09412C4.37419 2.4997 3.60997 3.09065 3 3.82496V1.99996H2V5.99996H6V4.99996H3.405C3.87428 4.28305 4.50457 3.6857 5.24561 3.25553C5.98665 2.82537 6.81795 2.5743 7.67321 2.52233C8.52848 2.47036 9.38406 2.61894 10.1717 2.95622C10.9594 3.29349 11.6574 3.81014 12.21 4.46496L13 3.82496Z" fill="black"/>
</svg>
