<svg width="33" height="32" viewBox="0 0 33 32" fill="none" xmlns="http://www.w3.org/2000/svg">
<path d="M19.5 2.03101L18.781 2.71901L13.219 8.31301L12.5 9.00001L11.5 10L9.21901 12.313L8.65601 12.875L9.09401 13.563C9.09401 13.563 9.70401 14.5 10.188 15.531C10.43 16.047 10.648 16.594 10.718 16.969C10.754 17.156 10.758 17.269 10.75 17.312C10.64 17.398 9.32401 18.442 7.75001 19.719C6.11001 21.047 4.36701 22.445 3.65601 23.156C2.90899 23.9078 2.48972 24.9247 2.48972 25.9845C2.48972 27.0444 2.90899 28.0612 3.65601 28.813C5.20301 30.359 7.72601 30.348 9.28101 28.813H9.31201C10.027 28.098 11.461 26.383 12.782 24.75C13.5973 23.7421 14.4097 22.7318 15.219 21.719C15.215 21.723 15.262 21.656 15.625 21.719C15.988 21.781 16.504 21.969 17 22.219C17.6614 22.5596 18.2983 22.9458 18.906 23.375L19.594 23.875L20.187 23.281L22.5 21L23.5 20L24.188 19.281L29.781 13.719L30.469 13L29.781 12.281L20.22 2.72001L19.5 2.03101ZM20.813 7.25001C21.003 7.26601 21.153 7.34001 21.281 7.46901C21.793 7.98401 21.047 9.98901 20.688 10.844C20.328 11.704 20.441 12.375 20.906 12.844C21.699 13.644 23.796 11.762 24.688 12.656C25.574 13.551 23.961 15.453 24.531 16.031L24.563 16.063L22.781 17.843L14.656 9.71901L16.031 8.34401C16.051 8.36701 16.071 8.38301 16.094 8.40601C16.774 9.09001 18.168 8.43701 18.75 8.06201C19.438 7.62201 20.242 7.20301 20.813 7.25001ZM13.219 11.156L21.344 19.281L21.062 19.563L19.344 21.313C18.957 21.047 18.687 20.828 17.906 20.438C17.309 20.141 16.66 19.868 15.969 19.75C15.278 19.632 14.402 19.66 13.781 20.281L13.75 20.344L13.719 20.375C13.719 20.375 12.539 21.871 11.219 23.5C9.89901 25.129 8.36701 26.945 7.90601 27.406C7.11701 28.196 5.88301 28.196 5.09401 27.406C4.90678 27.2228 4.75802 27.0041 4.65647 26.7627C4.55491 26.5212 4.5026 26.2619 4.5026 26C4.5026 25.7381 4.55491 25.4788 4.65647 25.2373C4.75802 24.9959 4.90678 24.7772 5.09401 24.594C5.55401 24.133 7.37101 22.602 9.00001 21.281C10.629 19.961 12.125 18.781 12.125 18.781L12.156 18.75L12.219 18.719C12.852 18.089 12.813 17.254 12.688 16.594C12.562 15.934 12.281 15.289 12 14.687C11.621 13.875 11.398 13.578 11.156 13.187L12.937 11.437L13.219 11.156ZM6.75001 24.656C6.45986 24.656 6.1816 24.7713 5.97643 24.9764C5.77127 25.1816 5.65601 25.4599 5.65601 25.75C5.65601 26.0402 5.77127 26.3184 5.97643 26.5236C6.1816 26.7287 6.45986 26.844 6.75001 26.844C7.04015 26.844 7.31842 26.7287 7.52358 26.5236C7.72875 26.3184 7.84401 26.0402 7.84401 25.75C7.84401 25.4599 7.72875 25.1816 7.52358 24.9764C7.31842 24.7713 7.04015 24.656 6.75001 24.656Z" fill="black"/>
</svg>
