<svg width="16" height="16" viewBox="0 0 16 16" fill="none" xmlns="http://www.w3.org/2000/svg">
<path d="M10.3573 1.87135C10.8593 1.38054 11.5347 1.1075 12.2367 1.11149C12.9388 1.11548 13.611 1.39618 14.1073 1.89267C14.6037 2.38915 14.8843 3.06137 14.8882 3.76343C14.8921 4.4655 14.6189 5.14076 14.128 5.64268L12.2427 7.52868L12.4787 7.76468C12.6037 7.88978 12.6739 8.05941 12.6738 8.23625C12.6737 8.4131 12.6034 8.58268 12.4783 8.70768C12.3532 8.83269 12.1836 8.90288 12.0068 8.90282C11.8299 8.90276 11.6603 8.83244 11.5353 8.70735L11.3 8.47135L7.15667 12.6147C6.7844 12.987 6.31026 13.2408 5.794 13.344L4.62467 13.5773C4.36646 13.6292 4.12938 13.7563 3.94333 13.9427L3.286 14.6C3.16098 14.725 2.99144 14.7952 2.81467 14.7952C2.63789 14.7952 2.46835 14.725 2.34333 14.6L1.4 13.6567C1.27502 13.5317 1.20481 13.3621 1.20481 13.1854C1.20481 13.0086 1.27502 12.839 1.4 12.714L2.05733 12.0567C2.24324 11.8705 2.36989 11.6334 2.42133 11.3754L2.65533 10.206C2.7586 9.68976 3.01237 9.21562 3.38467 8.84335L7.528 4.70002L7.292 4.46468C7.16699 4.33959 7.0968 4.16996 7.09686 3.99311C7.0969 3.90555 7.11417 3.81885 7.14771 3.73796C7.18125 3.65707 7.23039 3.58358 7.29233 3.52168C7.35427 3.45979 7.4278 3.4107 7.50871 3.37722C7.58962 3.34373 7.67634 3.32652 7.7639 3.32655C7.94075 3.32661 8.11033 3.39692 8.23533 3.52202L8.47067 3.75735L10.3573 1.87135ZM8.47133 5.64335L4.328 9.78602C4.14185 9.97215 4.01497 10.2092 3.96333 10.4674L3.73 11.6374C3.62655 12.1537 3.37254 12.6278 3 13C3.37227 12.6277 3.84641 12.3739 4.36267 12.2707L5.532 12.0367C5.79013 11.9851 6.0272 11.8582 6.21333 11.672L10.3567 7.52868L8.47133 5.64335Z" fill="black"/>
</svg>
