<svg width="16" height="16" viewBox="0 0 16 16" fill="none" xmlns="http://www.w3.org/2000/svg">
<path d="M13.7143 15.9999C12.454 15.9999 11.4286 14.9602 11.4286 13.6827C11.4286 12.4938 12.4525 11.347 13.0029 10.7313C13.0697 10.6563 13.1275 10.5917 13.17 10.5417C13.2369 10.462 13.3203 10.398 13.4146 10.354C13.5088 10.3101 13.6116 10.2873 13.7156 10.2873C13.8195 10.2873 13.9223 10.3101 14.0165 10.354C14.1108 10.398 14.1942 10.462 14.2611 10.5417C14.3014 10.5885 14.355 10.6488 14.4168 10.7178C14.9704 11.3356 16 12.486 16 13.6838C16 14.9602 14.9747 15.9999 13.7143 15.9999ZM13.0797 8.73706L4.81759 0.54355C4.46875 0.19548 3.99609 0 3.50331 0C3.01053 0 2.53787 0.19548 2.18904 0.54355L2.02797 0.70462C1.67012 1.05661 1.4661 1.53591 1.46047 2.03782C1.45909 2.28288 1.50654 2.52575 1.60005 2.75226C1.69356 2.97877 1.83126 3.18439 2.00511 3.3571L3.4876 4.83923L0.464406 7.85706C0.314789 8.00703 0.196647 8.18537 0.116917 8.38163C0.0371879 8.57788 -0.0025206 8.7881 0.000123914 8.99991C0.00186202 9.20656 0.0454841 9.41071 0.128353 9.60002C0.211223 9.78933 0.331618 9.95987 0.482263 10.1013L5.16937 14.6013C5.46308 14.8828 5.85453 15.0395 6.26137 15.0383C6.66821 15.0371 7.05873 14.8781 7.35078 14.5949L11.7832 10.2992C11.8634 10.2195 11.9659 10.166 12.0772 10.146C12.218 10.1234 12.3606 10.1131 12.5032 10.1153H12.514C12.6738 10.1155 12.8301 10.0682 12.9629 9.97933C13.0957 9.89044 13.199 9.76401 13.2597 9.61617C13.3204 9.46832 13.3357 9.30575 13.3036 9.14918C13.2716 8.99262 13.1936 8.84914 13.0797 8.73706ZM4.29616 4.03031L2.81296 2.54746C2.74633 2.4811 2.69347 2.40223 2.6574 2.31539C2.62132 2.22855 2.60275 2.13543 2.60275 2.0414C2.60275 1.94736 2.62132 1.85425 2.6574 1.7674C2.69347 1.68056 2.74633 1.60169 2.81296 1.53533L2.99724 1.3514C3.06381 1.28481 3.14284 1.23198 3.22983 1.19593C3.31681 1.15989 3.41005 1.14134 3.5042 1.14134C3.59836 1.14134 3.6916 1.15989 3.77858 1.19593C3.86557 1.23198 3.9446 1.28481 4.01116 1.3514L5.50008 2.82889L4.29616 4.03031Z" fill="black"/>
</svg>
