<svg width="16" height="16" viewBox="0 0 16 16" fill="none" xmlns="http://www.w3.org/2000/svg">
<path d="M13.8067 4.69329C13.58 4.91996 13.36 5.13996 13.3533 5.35996C13.3333 5.57329 13.56 5.79329 13.7733 5.99996C14.0933 6.33329 14.4067 6.63329 14.3933 6.95996C14.38 7.28662 14.04 7.62662 13.7 7.95996L10.9467 10.72L10 9.77329L12.8333 6.94662L12.1933 6.30662L11.2467 7.24662L8.74667 4.74662L11.3067 2.19329C11.5667 1.93329 12 1.93329 12.2467 2.19329L13.8067 3.75329C14.0667 3.99996 14.0667 4.43329 13.8067 4.69329ZM2 11.5L8.37333 5.11996L10.8733 7.61996L4.5 14H2V11.5Z" fill="black"/>
</svg>
