<svg width="12" height="11" viewBox="0 0 12 11" fill="none" xmlns="http://www.w3.org/2000/svg">
<path d="M3.992 10.552V11H0.904V10.552L1.784 10.44C1.90133 10.4187 1.98667 10.3973 2.04 10.376C2.09333 10.344 2.14133 10.2747 2.184 10.168C2.22667 10.0613 2.28533 9.89067 2.36 9.656L5.416 0.12H6.792L9.864 9.656C9.93867 9.89067 9.99733 10.0613 10.04 10.168C10.0827 10.2747 10.1307 10.344 10.184 10.376C10.248 10.3973 10.3333 10.4187 10.44 10.44L11.32 10.552V11H6.904V10.552L7.784 10.44C7.95467 10.4187 8.04533 10.376 8.056 10.312C8.07733 10.2373 8.02933 10.0187 7.912 9.656L7.304 7.672H3.608L2.984 9.656C2.87733 10.0187 2.82933 10.2373 2.84 10.312C2.85067 10.376 2.94133 10.4187 3.112 10.44L3.992 10.552ZM3.8 7.112H7.128L5.48 1.8L3.8 7.112Z" fill="black"/>
</svg>
